<svg xmlns="http://www.w3.org/2000/svg" width="27" height="42" fill="none" viewBox="0 0 27 42">
  <path fill="#15D4BE" d="M24.733 14.281a12.244 12.244 0 00-6.082-5.263v2.915c.1.056.212.1.317.158a9.75 9.75 0 013.561 3.557 9.79 9.79 0 010 9.78 9.771 9.771 0 01-3.561 3.555c-.1.06-.212.1-.317.157v2.736a12.254 12.254 0 006.082-5.262 12.33 12.33 0 000-12.333z"/>
  <path fill="#000" d="M20.564 13.27v-3.263c-.111-.069-.209-.151-.323-.217a12.696 12.696 0 00-1.59-.772v2.915c.1.057.212.1.317.158a9.932 9.932 0 011.6 1.179M18.968 28.982c-.1.06-.212.1-.317.157v2.736c.548-.22 1.08-.477 1.59-.772.113-.065.212-.147.323-.216v-3.085c-.493.446-1.029.841-1.6 1.18" opacity=".4"/>
  <path fill="#000" d="M19.193 41.27L1.787 34.678V0l17.406 6.591V41.27zM2.874 33.927l15.234 5.771V7.341L2.874 1.571v32.356z"/>
  <path fill="#15D4BE" d="M12.473 32.756a12.03 12.03 0 01-6.166-1.653 12.253 12.253 0 01-4.492-4.49 12.32 12.32 0 010-12.332 12.244 12.244 0 014.492-4.492c1.869-1.097 4-1.667 6.166-1.653v2.641A9.552 9.552 0 007.58 12.09a9.75 9.75 0 00-3.561 3.557 9.79 9.79 0 000 9.78 9.763 9.763 0 003.561 3.555 9.55 9.55 0 004.893 1.312v2.462z"/>
</svg>
